<?xml version="1.0" encoding="UTF-8" standalone="no"?>
<!-- Created with Inkscape (http://www.inkscape.org/) -->

<svg
 xmlns:dc="http://purl.org/dc/elements/1.1/"
 xmlns:cc="http://creativecommons.org/ns#"
 xmlns:rdf="http://www.w3.org/1999/02/22-rdf-syntax-ns#"
 xmlns:svg="http://www.w3.org/2000/svg"
 xmlns="http://www.w3.org/2000/svg"
 xmlns:sodipodi="http://sodipodi.sourceforge.net/DTD/sodipodi-0.dtd"
 xmlns:inkscape="http://www.inkscape.org/namespaces/inkscape"
 width="64px"
 height="64px"
 id="svg3873"
 version="1.1"
 inkscape:version="0.48.4 r9939"
 sodipodi:docname="New document 5">
<defs
 id="defs3875" />
<sodipodi:namedview
 id="base"
 pagecolor="#ffffff"
 bordercolor="#666666"
 borderopacity="1.0"
 inkscape:pageopacity="0.0"
 inkscape:pageshadow="2"
 inkscape:zoom="5.5"
 inkscape:cx="32"
 inkscape:cy="32"
 inkscape:current-layer="layer1"
 showgrid="true"
 inkscape:document-units="px"
 inkscape:grid-bbox="true"
 inkscape:window-width="615"
 inkscape:window-height="581"
 inkscape:window-x="0"
 inkscape:window-y="28"
 inkscape:window-maximized="0" />
<metadata
 id="metadata3878">
<rdf:RDF>
<cc:Work
 rdf:about="">
<dc:format>image/svg+xml</dc:format>
<dc:type
 rdf:resource="http://purl.org/dc/dcmitype/StillImage" />
<dc:title></dc:title>
</cc:Work>
</rdf:RDF>
</metadata>
<g
 id="layer1"
 inkscape:label="Layer 1"
 inkscape:groupmode="layer">
<g
 id="g56"
 transform="matrix(1.5863636,0,0,-1.5863636,12.963637,55.795454)"
 style="fill:#00a8ff">
<path
 inkscape:connector-curvature="0"
 d="m 0,0 c 0,-0.552 0.447,-1 1,-1 0.553,0 1,0.448 1,1 L 2,24 C 2,24.552 1.553,25 1,25 0.447,25 0,24.552 0,24 L 0,0 z M 7,8 C 7,7.448 7.447,7 8,7 l 12,0 c 0.553,0 1,0.448 1,1 0,0.552 -0.447,1 -1,1 L 8,9 C 7.447,9 7,8.552 7,8 m 2,9 c 0,-3.309 2.243,-6 5,-6 2.757,0 5,2.691 5,6 0,3.309 -2.243,6 -5,6 -2.757,0 -5,-2.691 -5,-6 M 19,4 c 0,0.552 -0.447,1 -1,1 L 10,5 C 9.447,5 9,4.552 9,4 9,3.448 9.447,3 10,3 l 8,0 c 0.553,0 1,0.448 1,1 m 7,27 0,2 -26,0 c -1.103,0 -2,-0.897 -2,-2 0,-1.103 0.897,-2 2,-2 l 26,0 c 1.103,0 2,-0.897 2,-2 l 0,-30 c 0,-1.103 -0.897,-2 -2,-2 L 0,-5 c -2.206,0 -4,1.794 -4,4 l 0,32 c 0,2.206 1.794,4 4,4 l 26,0 c 1.103,0 2,-0.897 2,-2 l 0,-2 c 0,-0.552 -0.447,-1 -1,-1 -0.553,0 -1,0.448 -1,1 M 11,17 c 0,2.206 1.346,4 3,4 1.654,0 3,-1.794 3,-4 0,-2.206 -1.346,-4 -3,-4 -1.654,0 -3,1.794 -3,4"
 style="fill:#00a8ff;fill-opacity:1;fill-rule:nonzero;stroke:none"
 id="path58" />
</g>
</g>
</svg>
