<?xml version="1.0" encoding="UTF-8" standalone="no"?>
<!-- Created with Inkscape (http://www.inkscape.org/) -->

<svg
 xmlns:dc="http://purl.org/dc/elements/1.1/"
 xmlns:cc="http://creativecommons.org/ns#"
 xmlns:rdf="http://www.w3.org/1999/02/22-rdf-syntax-ns#"
 xmlns:svg="http://www.w3.org/2000/svg"
 xmlns="http://www.w3.org/2000/svg"
 xmlns:sodipodi="http://sodipodi.sourceforge.net/DTD/sodipodi-0.dtd"
 xmlns:inkscape="http://www.inkscape.org/namespaces/inkscape"
 width="64px"
 height="64px"
 id="svg3873"
 version="1.1"
 inkscape:version="0.48.4 r9939"
 sodipodi:docname="Book.svg">
<defs
 id="defs3875" />
<sodipodi:namedview
 id="base"
 pagecolor="#ffffff"
 bordercolor="#666666"
 borderopacity="1.0"
 inkscape:pageopacity="0.0"
 inkscape:pageshadow="2"
 inkscape:zoom="5.5"
 inkscape:cx="1.5962605"
 inkscape:cy="32"
 inkscape:current-layer="layer1"
 showgrid="true"
 inkscape:document-units="px"
 inkscape:grid-bbox="true"
 inkscape:window-width="840"
 inkscape:window-height="581"
 inkscape:window-x="0"
 inkscape:window-y="28"
 inkscape:window-maximized="0" />
<metadata
 id="metadata3878">
<rdf:RDF>
<cc:Work
 rdf:about="">
<dc:format>image/svg+xml</dc:format>
<dc:type
 rdf:resource="http://purl.org/dc/dcmitype/StillImage" />
<dc:title></dc:title>
</cc:Work>
</rdf:RDF>
</metadata>
<g
 id="layer1"
 inkscape:label="Layer 1"
 inkscape:groupmode="layer">
<g
 id="g40"
 transform="matrix(1.6614832,0,0,-1.6614832,25.354067,20.369618)"
 style="fill:#00a8ff">
<path
 inkscape:connector-curvature="0"
 d="M 0,0 C 0,2.209 1.791,4 4,4 6.209,4 8,2.209 8,0 8,-3.314 6.209,-6 4,-6 1.791,-6 0,-3.314 0,0 m 12,-13 -16,0 0,1.016 c 0,2.2 3.582,3.984 8,3.984 4.418,0 8,-1.784 8,-3.984 L 12,-13 z m 4,-3 -24,0 0,24 24,0 0,-24 z m 2,28 -28,0 c -1.104,0 -2,-0.895 -2,-2 l 0,-34 c 0,-1.104 0.896,-2 2,-2 l 28,0 c 1.105,0 2,0.896 2,2 l 0,34 c 0,1.105 -0.895,2 -2,2"
 style="fill:#00a8ff;fill-opacity:1;fill-rule:evenodd;stroke:none"
 id="path42" />
</g>
</g>
</svg>
